<svg xmlns="http://www.w3.org/2000/svg" width="511" height="79" viewBox="0 0 511 79">
  <defs>
    <style>
      .cls-1 {
        fill: #fff;
      }

      .cls-1, .cls-2 {
        fill-rule: evenodd;
      }

      .cls-2 {
        fill: #ff3c65;
      }
    </style>
  </defs>
  <path id="WP" class="cls-1" d="M100.627,64.376V19.95h10.437v5.231a13.872,13.872,0,0,1,11.554-5.894,16.136,16.136,0,0,1,11.853,5.084q4.92,5.084,4.92,13.925c0,5.747-1.64,10.388-4.92,13.777a15.9,15.9,0,0,1-11.853,5.084A14.678,14.678,0,0,1,111.064,51.7V64.376H100.627Zm12.9-18.861a8.218,8.218,0,0,0,6.411,2.8,8.328,8.328,0,0,0,6.411-2.8,10.613,10.613,0,0,0,2.609-7.368,10.553,10.553,0,0,0-2.609-7.294,8.586,8.586,0,0,0-6.411-2.8,8.468,8.468,0,0,0-6.411,2.8,10.63,10.63,0,0,0-2.535,7.441,10.312,10.312,0,0,0,2.535,7.22h0Zm47.038,11.714A19.373,19.373,0,0,1,146.7,52c-3.653-3.536-5.442-8.1-5.442-13.7A19.06,19.06,0,0,1,146.4,24.812a17.172,17.172,0,0,1,13.12-5.526c5.815,0,10.288,1.916,13.344,5.747a21.645,21.645,0,0,1,4.622,14.072c0,0.516-.075,1.4-0.15,2.726H151.616a9.142,9.142,0,0,0,3.131,5.3,9.5,9.5,0,0,0,5.889,1.842,13.119,13.119,0,0,0,9.02-3.757l5.964,5.231c-3.727,4.568-8.722,6.778-15.058,6.778h0Zm-9.02-21.881h15.729a9.355,9.355,0,0,0-2.535-5.673,6.838,6.838,0,0,0-5.218-2.063,7.122,7.122,0,0,0-5.293,2.063,9.715,9.715,0,0,0-2.683,5.673h0Zm39.285,21.808a13.585,13.585,0,0,1-9.02-3.021,10.113,10.113,0,0,1-3.652-8.325c0-3.831,1.341-6.778,4.025-8.693s6.336-2.947,10.884-2.947a26.557,26.557,0,0,1,8.945,1.547V35.053c0-4.421-2.609-6.631-7.9-6.631a29.434,29.434,0,0,0-10.138,1.989l-2.609-7.957a35.971,35.971,0,0,1,14.313-2.873c5.516,0,9.691,1.326,12.449,4.052,2.609,2.652,3.951,6.483,3.951,11.641V56.419H202.009v-3.9a14.442,14.442,0,0,1-11.182,4.642h0Zm3.131-7.146a9.419,9.419,0,0,0,5.964-1.842,5.592,5.592,0,0,0,2.236-4.568V41.758a14.843,14.843,0,0,0-6.634-1.4,9.3,9.3,0,0,0-5.368,1.326,4.457,4.457,0,0,0-1.863,3.9,3.7,3.7,0,0,0,1.565,3.168,6.612,6.612,0,0,0,4.1,1.253h0Zm23.556,6.41V19.95h10.511v7.368c2.386-5.6,6.262-8.252,11.7-8.031v10.83h-0.522c-3.578,0-6.336,1.031-8.275,3.242-1.938,2.136-2.907,5.378-2.907,9.578V56.419H217.514Zm25.942,0V9.709h10.437v46.71H243.456Z"/>
  <path id="business" class="cls-1" d="M270.451,56.358V49.1q5.371,8.06,14.083,8.059a15.6,15.6,0,0,0,6.075-1.241,17.755,17.755,0,0,0,5.322-3.449,16.261,16.261,0,0,0,3.8-5.593,19.63,19.63,0,0,0,0-14.765,16.1,16.1,0,0,0-3.8-5.577,17.676,17.676,0,0,0-5.322-3.417,15.77,15.77,0,0,0-6.075-1.225q-8.548,0-14.083,8.317V8.164h-3.308V56.358h3.308Zm0.983-22.695a13.845,13.845,0,0,1,3.127-4.642,14.837,14.837,0,0,1,4.471-2.95,13.027,13.027,0,0,1,5.174-1.08,12.867,12.867,0,0,1,5.126,1.048,13.027,13.027,0,0,1,7.188,7.511,16.229,16.229,0,0,1,1.081,5.98q0,6.705-3.815,10.606a12.845,12.845,0,0,1-9.58,3.9,13.627,13.627,0,0,1-6.746-1.773,13.911,13.911,0,0,1-5.191-5.142,14.383,14.383,0,0,1-2.014-7.527A15,15,0,0,1,271.434,33.663Zm38.943,19.648q3.667,3.853,10.022,3.852a13.356,13.356,0,0,0,12.346-7.092v6.286h3.275V22.7h-3.275V42.174a11.61,11.61,0,0,1-11.888,11.992,10.353,10.353,0,0,1-7.991-3.111,11.824,11.824,0,0,1-2.882-8.365V22.7h-3.275V43.27A13.963,13.963,0,0,0,310.377,53.311Zm37.65,2.353A22.348,22.348,0,0,0,355.511,57a13.084,13.084,0,0,0,8.433-2.708,8.676,8.676,0,0,0,3.389-7.124,7.837,7.837,0,0,0-.428-2.649,5.765,5.765,0,0,0-1.3-2.1,14.2,14.2,0,0,0-1.831-1.592,11.383,11.383,0,0,0-2.392-1.277q-1.435-.583-2.574-0.944l-2.792-.886-2.4-.762-2.2-.7a8.644,8.644,0,0,1-2.036-.88,14.536,14.536,0,0,1-1.451-1.082,3.64,3.64,0,0,1-1.064-1.41,4.454,4.454,0,0,1-.323-1.706,5.394,5.394,0,0,1,2.162-4.411,8.77,8.77,0,0,1,5.633-1.722,19.234,19.234,0,0,1,10.512,3.385l1.736-2.708a22.6,22.6,0,0,0-5.829-2.708,21.319,21.319,0,0,0-6.288-1,12.24,12.24,0,0,0-8.122,2.627,8.337,8.337,0,0,0-3.144,6.689,7.063,7.063,0,0,0,.245,1.886,9.915,9.915,0,0,0,.573,1.58,4.659,4.659,0,0,0,1.016,1.354q0.687,0.661,1.195,1.1a6.986,6.986,0,0,0,1.539.919q1.032,0.484,1.621.758a15.692,15.692,0,0,0,1.839.66l1.826,0.564,1.89,0.583,2.762,0.854a20.721,20.721,0,0,1,2.421.937,8.449,8.449,0,0,1,2.049,1.239,5.836,5.836,0,0,1,1.263,1.593,4.294,4.294,0,0,1,.524,2.108,5.632,5.632,0,0,1-2.342,4.73,9.469,9.469,0,0,1-5.878,1.77,20.117,20.117,0,0,1-12.281-4.416l-1.965,2.579A22.325,22.325,0,0,0,348.027,55.665ZM377.883,13.9V9.486h-4.061V13.9h4.061ZM377.49,56.358V22.7h-3.275V56.358h3.275Zm12.187,0V36.887a11.709,11.709,0,0,1,3.389-8.623,11.469,11.469,0,0,1,8.466-3.4,10.355,10.355,0,0,1,7.991,3.111,11.825,11.825,0,0,1,2.882,8.365V56.358h3.275v-20.6a13.939,13.939,0,0,0-3.652-10.026q-3.651-3.836-10-3.836a13.367,13.367,0,0,0-12.346,7.06V22.7h-3.308V56.358h3.308Zm32.8-9.655a16.584,16.584,0,0,0,3.651,5.609,16.753,16.753,0,0,0,5.355,3.562,16.336,16.336,0,0,0,6.4,1.289,17.742,17.742,0,0,0,7.942-1.644,21.85,21.85,0,0,0,6.206-4.707l-2.292-1.966A15.641,15.641,0,0,1,438.019,54.1a12.983,12.983,0,0,1-9.12-3.594,13.926,13.926,0,0,1-4.307-9.655h28.394a10.77,10.77,0,0,0,.066-1.322,20.627,20.627,0,0,0-1.9-8.962,14.891,14.891,0,0,0-13.82-8.672,15.293,15.293,0,0,0-6.436,1.386,15.645,15.645,0,0,0-5.158,3.739,17.69,17.69,0,0,0-3.373,5.593A19.706,19.706,0,0,0,422.48,46.7ZM428.6,28.6a11.425,11.425,0,0,1,8.6-3.739,12.03,12.03,0,0,1,5.158,1.08,10.339,10.339,0,0,1,3.782,2.934,14.97,14.97,0,0,1,2.326,4.159,17.271,17.271,0,0,1,1.015,4.916h-24.89A14.885,14.885,0,0,1,428.6,28.6Zm33.572,27.063A22.348,22.348,0,0,0,469.66,57a13.084,13.084,0,0,0,8.433-2.708,8.674,8.674,0,0,0,3.39-7.124,7.837,7.837,0,0,0-.429-2.649,5.752,5.752,0,0,0-1.3-2.1,14.133,14.133,0,0,0-1.831-1.592,11.383,11.383,0,0,0-2.392-1.277q-1.435-.583-2.574-0.944l-2.792-.886-2.4-.762-2.2-.7a8.663,8.663,0,0,1-2.036-.88,14.536,14.536,0,0,1-1.451-1.082,3.65,3.65,0,0,1-1.064-1.41,4.454,4.454,0,0,1-.323-1.706,5.394,5.394,0,0,1,2.162-4.411,8.77,8.77,0,0,1,5.633-1.722,19.24,19.24,0,0,1,10.513,3.385l1.735-2.708a22.6,22.6,0,0,0-5.829-2.708,21.319,21.319,0,0,0-6.288-1,12.24,12.24,0,0,0-8.122,2.627,8.337,8.337,0,0,0-3.144,6.689,7.063,7.063,0,0,0,.245,1.886,9.817,9.817,0,0,0,.574,1.58,4.654,4.654,0,0,0,1.015,1.354q0.687,0.661,1.195,1.1a6.986,6.986,0,0,0,1.539.919q1.032,0.484,1.622.758a15.661,15.661,0,0,0,1.838.66l1.826,0.564,1.89,0.583,2.763,0.854a20.779,20.779,0,0,1,2.42.937,8.449,8.449,0,0,1,2.049,1.239,5.836,5.836,0,0,1,1.263,1.593,4.294,4.294,0,0,1,.524,2.108,5.633,5.633,0,0,1-2.341,4.73,9.474,9.474,0,0,1-5.879,1.77,20.12,20.12,0,0,1-12.281-4.416l-1.965,2.579A22.325,22.325,0,0,0,462.176,55.665Zm28.628,0A22.347,22.347,0,0,0,498.287,57a13.082,13.082,0,0,0,8.433-2.708,8.674,8.674,0,0,0,3.39-7.124,7.812,7.812,0,0,0-.429-2.649,5.75,5.75,0,0,0-1.3-2.1,14.207,14.207,0,0,0-1.832-1.592,11.373,11.373,0,0,0-2.391-1.277q-1.435-.583-2.575-0.944l-2.792-.886-2.4-.762-2.2-.7a8.653,8.653,0,0,1-2.035-.88A14.66,14.66,0,0,1,490.7,34.3a3.65,3.65,0,0,1-1.064-1.41,4.454,4.454,0,0,1-.322-1.706,5.393,5.393,0,0,1,2.161-4.411,8.772,8.772,0,0,1,5.633-1.722,19.24,19.24,0,0,1,10.513,3.385l1.736-2.708a22.587,22.587,0,0,0-5.83-2.708,21.309,21.309,0,0,0-6.288-1,12.24,12.24,0,0,0-8.122,2.627,8.337,8.337,0,0,0-3.144,6.689,7.023,7.023,0,0,0,.246,1.886,9.818,9.818,0,0,0,.573,1.58,4.672,4.672,0,0,0,1.015,1.354q0.688,0.661,1.2,1.1a6.962,6.962,0,0,0,1.539.919q1.032,0.484,1.621.758a15.623,15.623,0,0,0,1.839.66l1.826,0.564,1.889,0.583,2.763,0.854a20.643,20.643,0,0,1,2.42.937,8.477,8.477,0,0,1,2.05,1.239,5.852,5.852,0,0,1,1.262,1.593,4.284,4.284,0,0,1,.525,2.108A5.632,5.632,0,0,1,504.4,52.2a9.472,9.472,0,0,1-5.879,1.77,20.12,20.12,0,0,1-12.281-4.416l-1.965,2.579A22.318,22.318,0,0,0,490.8,55.665Z"/>
  <path class="cls-2" d="M39.5,0A39.5,39.5,0,1,1,0,39.5,39.5,39.5,0,0,1,39.5,0Zm0,10.253A29.247,29.247,0,1,1,10.253,39.5,29.247,29.247,0,0,1,39.5,10.253Z"/>
</svg>
